<svg width="302" height="47" viewBox="0 0 302 47" fill="none" xmlns="http://www.w3.org/2000/svg">
<path d="M12.42 35.756L12.672 37.628C12.672 37.748 12.252 37.976 11.412 38.312C10.572 38.672 9.984 38.852 9.648 38.852C9.336 38.852 8.964 38.756 8.532 38.564C8.1 38.396 7.776 38.228 7.56 38.06L7.272 37.808C7.44 37.448 7.584 36.848 7.704 36.008L7.74 35.648C6.564 35.552 5.496 35.384 4.536 35.144C3.6 34.904 2.952 34.688 2.592 34.496L2.088 34.208C1.944 34.064 1.776 33.32 1.584 31.976C1.392 30.608 1.296 29.372 1.296 28.268C1.296 28.124 1.776 27.716 2.736 27.044L3.204 26.72C3.492 26.576 4.092 26.432 5.004 26.288C5.028 26.288 5.04 26.384 5.04 26.576L5.004 27.368L5.94 29.636C6.012 29.708 6.42 29.876 7.164 30.14C7.908 30.404 8.472 30.536 8.856 30.536C9.504 30.536 10.152 30.152 10.8 29.384C11.472 28.592 11.808 28.04 11.808 27.728C11.808 27.176 11.484 26.456 10.836 25.568L10.512 25.1C8.76 23.972 7.716 23.408 7.38 23.408C7.068 23.408 6.768 23.468 6.48 23.588C6.336 23.588 6.156 23.456 5.94 23.192C5.724 22.904 5.616 22.712 5.616 22.616L5.868 21.5C5.868 21.284 5.616 21.128 5.112 21.032L4.104 21.212C3.84 21.212 3.24 20.612 2.304 19.412C1.392 18.188 0.936 17.468 0.936 17.252C0.936 17.012 1.092 16.412 1.404 15.452C1.74 14.492 2.244 13.34 2.916 11.996C3.588 10.652 4.296 9.608 5.04 8.864C5.64 8.432 6.672 8.096 8.136 7.856V7.388C8.136 6.14 8.088 5.468 7.992 5.372C9.048 4.628 9.864 4.256 10.44 4.256C11.016 4.256 11.58 4.364 12.132 4.58C12.708 4.796 12.996 4.928 12.996 4.976C12.66 5.84 12.492 6.944 12.492 8.288C12.492 8.48 12.804 8.576 13.428 8.576C13.908 8.48 14.148 8.132 14.148 7.532C14.148 7.46 14.688 7.424 15.768 7.424C16.872 7.424 17.424 7.592 17.424 7.928C17.472 8.432 17.496 8.924 17.496 9.404C17.496 9.86 17.472 10.424 17.424 11.096C17.688 12.2 17.82 12.872 17.82 13.112V13.184C17.676 13.448 17.28 13.796 16.632 14.228C15.984 14.636 15.576 14.84 15.408 14.84C15.264 14.84 15.192 14.816 15.192 14.768C15.192 14.336 14.724 13.76 13.788 13.04C12.876 12.296 12.036 11.924 11.268 11.924C10.812 11.924 10.212 12.308 9.468 13.076C8.724 13.844 8.352 14.492 8.352 15.02C8.472 15.644 8.724 15.956 9.108 15.956C9.348 15.956 9.6 15.812 9.864 15.524H9.9C10.116 15.524 10.824 15.944 12.024 16.784C13.248 17.624 13.896 18.152 13.968 18.368C14.256 18.32 14.496 18.296 14.688 18.296C14.904 18.296 15.06 18.32 15.156 18.368C15.732 18.824 16.332 19.436 16.956 20.204C17.58 20.972 17.94 21.476 18.036 21.716C18.588 22.892 18.864 24.944 18.864 27.872C18.864 28.736 18.108 30.092 16.596 31.94C15.108 33.788 13.764 34.94 12.564 35.396C12.468 35.42 12.42 35.54 12.42 35.756ZM28.2665 16.1L27.6185 17.576C27.6185 17.72 27.6785 17.912 27.7985 18.152C27.9185 18.368 28.0265 18.476 28.1225 18.476C28.8665 18.236 29.2385 18.032 29.2385 17.864C29.2385 17.816 29.5145 17.636 30.0665 17.324C30.6185 17.012 30.8945 16.664 30.8945 16.28C30.8945 16.184 30.8465 16.052 30.7505 15.884C30.6545 15.716 30.6065 15.536 30.6065 15.344C30.6065 15.152 30.6785 14.864 30.8225 14.48L31.0025 13.94C31.0025 13.604 30.8345 13.196 30.4985 12.716C30.1625 12.236 29.8505 11.996 29.5625 11.996C29.2745 11.996 28.9625 12.128 28.6265 12.392C28.2905 12.632 28.1105 12.812 28.0865 12.932V13.004L28.2665 16.1ZM28.1945 26.72L28.0505 28.736C28.0505 29.192 28.1105 29.6 28.2305 29.96C28.3745 30.32 28.5185 30.5 28.6625 30.5C28.8545 30.5 29.2025 30.44 29.7065 30.32C30.2345 30.176 30.5825 30.032 30.7505 29.888C30.9905 29.648 31.2425 29.24 31.5065 28.664C31.7705 28.064 31.9025 27.656 31.9025 27.44C31.9025 27.2 31.7105 26.852 31.3265 26.396C30.9425 25.94 30.7505 25.652 30.7505 25.532L31.0385 24.308C31.0385 24.044 30.8225 23.792 30.3905 23.552C29.9825 23.288 29.6705 23.156 29.4545 23.156C29.2385 23.156 28.9505 23.408 28.5905 23.912C28.2545 24.392 28.0865 24.704 28.0865 24.848L28.1945 26.396V26.72ZM37.8065 29.96C37.2785 30.272 37.0145 30.572 37.0145 30.86C37.0145 31.124 37.1825 31.496 37.5185 31.976C37.5185 32.144 37.2305 32.492 36.6545 33.02C36.1025 33.548 35.6105 33.968 35.1785 34.28C34.7465 34.568 34.0505 34.916 33.0905 35.324C32.1545 35.732 31.4465 35.936 30.9665 35.936C30.5105 35.936 29.7545 35.744 28.6985 35.36C27.6425 35 27.0785 34.82 27.0065 34.82C26.9345 34.82 26.6945 35.036 26.2865 35.468C25.8785 35.924 25.5545 36.152 25.3145 36.152C24.4985 36.152 23.4545 35.768 22.1825 35C20.9345 34.232 20.3105 33.704 20.3105 33.416C20.3105 33.368 20.3945 33.152 20.5625 32.768C21.0425 31.664 21.2825 30.176 21.2825 28.304L21.2105 26.684C21.2105 26.66 21.2945 26.612 21.4625 26.54C22.0145 26.324 22.2905 26.024 22.2905 25.64C22.2905 25.256 22.0865 24.896 21.6785 24.56C21.2945 24.224 21.1025 24.032 21.1025 23.984V23.948C21.2705 23.42 21.3545 22.508 21.3545 21.212L21.2465 16.64V16.136C21.2465 15.992 21.1505 15.776 20.9585 15.488C20.7905 15.2 20.7065 14.972 20.7065 14.804C20.7065 14.612 20.8625 14.312 21.1745 13.904C21.4865 13.496 21.6425 13.16 21.6425 12.896C21.6425 12.632 21.3545 12.032 20.7785 11.096C20.2265 10.16 19.9505 9.68 19.9505 9.656C19.9505 9.344 20.4305 8.912 21.3905 8.36C22.3505 7.784 23.0825 7.496 23.5865 7.496C24.6425 6.968 25.4465 6.704 25.9985 6.704C26.2145 6.704 26.5505 7.112 27.0065 7.928C27.4865 8.744 27.7625 9.152 27.8345 9.152C27.9065 9.152 28.2425 8.972 28.8425 8.612C30.5945 7.556 31.8785 7.028 32.6945 7.028C33.5345 7.028 34.5545 7.4 35.7545 8.144C36.9545 8.864 37.5545 9.44 37.5545 9.872L37.0865 10.34C36.7745 10.652 36.6185 10.964 36.6185 11.276C36.6185 11.54 36.8465 11.732 37.3025 11.852C37.7825 11.948 38.0225 12.02 38.0225 12.068C38.0225 14.348 37.4705 16.04 36.3665 17.144C36.1025 17.408 35.6945 17.72 35.1425 18.08C34.6145 18.44 34.1945 18.776 33.8825 19.088C33.5945 19.376 33.4505 19.712 33.4505 20.096C33.5465 20.456 33.6665 20.636 33.8105 20.636C33.8585 20.636 34.1345 20.504 34.6385 20.24C35.1665 19.952 35.6225 19.808 36.0065 19.808C36.1505 19.808 36.4625 20.096 36.9425 20.672C37.4465 21.224 37.9385 22.028 38.4185 23.084C38.9225 24.14 39.1745 25.04 39.1745 25.784C39.1745 26.528 39.0905 27.296 38.9225 28.088C38.7545 28.88 38.6705 29.336 38.6705 29.456C38.6705 29.552 38.6105 29.636 38.4905 29.708C38.2025 29.876 37.9745 29.96 37.8065 29.96ZM48.1624 13.94L48.7384 15.596C48.7384 15.644 48.5584 15.884 48.1984 16.316C47.8384 16.748 47.6584 17.072 47.6584 17.288C47.6584 17.48 47.8144 17.708 48.1264 17.972C48.4624 18.236 48.6304 18.44 48.6304 18.584C48.0784 21.272 47.8024 23.216 47.8024 24.416C47.8024 24.68 48.0904 25.1 48.6664 25.676C48.7144 25.724 48.7384 25.82 48.7384 25.964C48.7384 26.084 48.6184 26.408 48.3784 26.936C48.1624 27.44 48.0544 27.74 48.0544 27.836C48.0544 28.484 48.3424 29.144 48.9184 29.816C49.4944 30.488 50.0344 30.824 50.5384 30.824C50.8504 30.824 51.1144 30.704 51.3304 30.464C51.5704 30.2 51.7864 29.948 51.9784 29.708L52.3024 29.348C52.3264 29.324 52.3384 29.288 52.3384 29.24C52.3384 29.192 52.1944 28.952 51.9064 28.52C51.6424 28.064 51.5104 27.752 51.5104 27.584C51.5104 27.416 51.6304 26.96 51.8704 26.216C52.1344 25.448 52.2664 24.896 52.2664 24.56L51.6904 23.984C51.6664 23.96 51.6544 23.888 51.6544 23.768V23.696C51.6544 23.288 51.5704 23 51.4024 22.832L51.3664 22.724C51.4144 22.484 51.7024 22.052 52.2304 21.428C52.3504 21.308 52.4104 20.816 52.4104 19.952L52.2304 16.46C52.2304 16.244 52.0384 15.992 51.6544 15.704C51.2944 15.416 51.1144 15.236 51.1144 15.164C51.1144 14.54 51.2824 13.832 51.6184 13.04L51.7984 12.644C51.7984 12.356 51.4744 12.032 50.8264 11.672L50.5024 11.492C50.0944 11.492 49.6024 11.792 49.0264 12.392C48.4504 12.968 48.1624 13.484 48.1624 13.94ZM58.3864 26.828C58.3864 27.308 58.6264 27.764 59.1064 28.196C59.1064 28.724 58.9264 29.396 58.5664 30.212C58.2064 31.004 57.8224 31.676 57.4144 32.228C57.0304 32.78 56.7784 33.056 56.6584 33.056C56.1064 33.056 55.4584 33.212 54.7144 33.524C53.9944 33.836 53.4064 34.148 52.9504 34.46L52.2664 34.928C52.0264 35.144 50.9224 35.36 48.9544 35.576L47.9824 35.684C46.9744 35.684 45.9304 35.264 44.8504 34.424C43.7704 33.56 42.9424 32.732 42.3664 31.94C41.8144 31.148 41.5384 30.704 41.5384 30.608C41.5384 30.512 41.5864 30.308 41.6824 29.996C41.8024 29.684 41.8624 29.384 41.8624 29.096C41.8624 28.52 41.4904 28.232 40.7464 28.232L40.4584 28.268C40.2664 28.268 40.0264 26.984 39.7384 24.416L39.5944 23.156L40.0264 18.26C40.0264 18.188 40.1704 17.948 40.4584 17.54C40.7464 17.132 40.8904 16.88 40.8904 16.784L40.8184 13.688C40.8184 12.752 40.8544 12.236 40.9264 12.14C41.2384 11.708 42.2344 10.868 43.9144 9.62C45.5944 8.372 46.8544 7.748 47.6944 7.748C47.8624 7.34 48.0424 7.136 48.2344 7.136C49.4344 7.064 50.8264 7.028 52.4104 7.028C54.0184 7.028 54.9544 7.16 55.2184 7.424C55.2424 7.448 55.5184 7.7 56.0464 8.18C56.5744 8.66 57.0184 9.08 57.3784 9.44C57.7384 9.8 58.0864 10.244 58.4224 10.772C58.7824 11.3 58.9624 11.744 58.9624 12.104L58.2424 13.004C58.5064 13.556 58.8784 14.72 59.3584 16.496C59.8624 18.248 60.1144 19.508 60.1144 20.276C60.0184 24.02 59.8384 25.892 59.5744 25.892C58.7824 26.204 58.3864 26.516 58.3864 26.828ZM69.3332 19.916C69.5732 19.916 70.0532 19.616 70.7732 19.016C71.5172 18.416 71.8892 18.044 71.8892 17.9C71.8892 17.732 71.8052 17.492 71.6372 17.18C71.4692 16.844 71.3852 16.616 71.3852 16.496C71.3852 16.352 71.5052 16.124 71.7452 15.812C71.9852 15.5 72.1052 15.296 72.1052 15.2C72.1052 14.312 71.9972 13.556 71.7812 12.932C71.5892 12.308 71.3852 11.9 71.1692 11.708L70.8452 11.42C70.5092 11.42 70.0292 11.624 69.4052 12.032C68.8052 12.416 68.5052 12.68 68.5052 12.824V12.86C68.6492 13.076 68.7932 13.472 68.9372 14.048C69.1052 14.6 69.1892 15.128 69.1892 15.632C69.1892 15.68 69.0932 15.8 68.9012 15.992C68.7092 16.184 68.5892 16.28 68.5412 16.28C68.6852 17.408 68.7572 18.212 68.7572 18.692C68.7572 19.172 68.7452 19.46 68.7212 19.556C68.9132 19.796 69.1172 19.916 69.3332 19.916ZM78.8732 12.608C79.1132 12.608 79.2332 13.064 79.2332 13.976C79.2332 14.888 79.1732 15.716 79.0532 16.46C78.9572 17.204 78.8372 17.648 78.6932 17.792C77.5172 18.992 76.1492 20 74.5892 20.816C74.4692 21.056 74.4092 21.212 74.4092 21.284C74.4092 21.356 74.4332 21.392 74.4812 21.392C75.2972 21.392 76.1972 21.728 77.1812 22.4C78.1892 23.048 78.6932 23.576 78.6932 23.984C78.6452 24.32 78.6212 24.764 78.6212 25.316C78.6212 28.58 79.4132 31.004 80.9972 32.588V32.624C80.9972 32.84 80.5412 33.356 79.6292 34.172C78.7172 34.964 78.1292 35.36 77.8652 35.36C76.8812 35.36 75.8852 35.276 74.8772 35.108C73.8692 34.94 73.2212 34.712 72.9332 34.424C72.9092 34.4 72.8852 34.208 72.8612 33.848C72.7892 32.744 72.7172 32.072 72.6452 31.832C72.6452 31.784 72.7292 31.712 72.8972 31.616C73.4012 31.28 73.6532 30.92 73.6532 30.536C73.6532 30.32 73.4252 30.188 72.9692 30.14C72.5132 30.068 72.2852 29.984 72.2852 29.888C72.2852 29.12 72.1772 27.944 71.9612 26.36L71.8532 25.568C71.7812 25.28 71.6252 24.98 71.3852 24.668C71.1452 24.356 70.9172 24.128 70.7012 23.984L70.3772 23.732C69.9932 23.732 69.4412 24.008 68.7212 24.56L68.3612 24.812C68.3612 24.98 68.6492 25.448 69.2252 26.216C68.9132 27.8 68.7572 29.132 68.7572 30.212V30.608C68.8532 30.608 68.9732 30.692 69.1172 30.86C69.2612 31.004 69.3332 31.112 69.3332 31.184L69.5852 34.244C69.5852 34.436 69.5612 34.532 69.5132 34.532C69.0332 34.532 68.3372 34.796 67.4252 35.324C66.5372 35.852 65.8532 36.116 65.3732 36.116C65.3492 36.116 65.2172 36.092 64.9772 36.044C64.1372 35.876 63.5612 35.792 63.2492 35.792C62.7212 35.792 62.0612 35.408 61.2692 34.64L60.8732 34.28C61.2092 33.608 61.4132 32.372 61.4852 30.572L61.5212 29.672C61.5212 29.648 61.6172 29.588 61.8092 29.492C62.0252 29.372 62.2292 29.216 62.4212 29.024C62.6132 28.808 62.7092 28.592 62.7092 28.376C62.7092 28.208 62.5172 28.052 62.1332 27.908C61.7732 27.764 61.5932 27.644 61.5932 27.548C61.5932 26.3 61.6892 25.1 61.8812 23.948C62.0972 22.796 62.2052 22.16 62.2052 22.04C62.2052 21.92 62.1452 21.8 62.0252 21.68C61.9292 21.56 61.8692 21.032 61.8452 20.096C61.8212 16.904 61.6772 14.864 61.4132 13.976C61.4132 13.928 61.5212 13.844 61.7372 13.724C61.9532 13.58 62.0612 13.448 62.0612 13.328C62.0612 12.536 61.7012 11.48 60.9812 10.16C60.7652 9.752 60.6572 9.536 60.6572 9.512C60.6572 9.368 60.9692 9.104 61.5932 8.72C62.2412 8.312 63.0452 7.94 64.0052 7.604C64.9892 7.244 65.8412 7.064 66.5612 7.064C66.7532 7.064 66.9572 7.388 67.1732 8.036C67.3892 8.66 67.4972 9.14 67.4972 9.476C67.5932 9.572 67.6892 9.62 67.7852 9.62C67.8812 9.62 67.9532 9.596 68.0012 9.548C69.3452 8.252 70.0892 7.58 70.2332 7.532C71.4092 7.412 72.6452 7.352 73.9412 7.352C75.2612 7.352 76.0652 7.496 76.3532 7.784C77.5532 8.96 78.1532 10.028 78.1532 10.988C77.5772 11.42 77.2892 11.828 77.2892 12.212C77.2892 12.524 77.5532 12.68 78.0812 12.68L78.8732 12.608ZM89.7438 18.296L95.6118 17.972C96.3558 17.972 96.7278 18.08 96.7278 18.296C96.7278 18.944 96.4518 19.964 95.8998 21.356C95.3478 22.724 94.9158 23.408 94.6038 23.408L93.9918 23.048C93.5838 22.832 93.1518 22.724 92.6958 22.724C90.9678 22.724 90.0318 22.796 89.8878 22.94C89.7438 23.084 89.6718 24.176 89.6718 26.216C89.6718 28.232 89.8638 29.432 90.2478 29.816C90.6318 30.2 91.4238 30.392 92.6238 30.392C93.8238 30.392 94.5798 30.236 94.8918 29.924C95.2278 29.588 95.5638 29.144 95.8998 28.592C96.2598 28.04 96.5478 27.572 96.7638 27.188C96.9798 26.78 97.0998 26.576 97.1238 26.576C97.3398 26.576 97.7478 26.876 98.3478 27.476C98.9718 28.076 99.2838 28.52 99.2838 28.808C99.2838 29.072 99.0198 30.056 98.4918 31.76C97.9878 33.44 97.6278 34.388 97.4118 34.604C97.3878 34.652 97.2918 34.676 97.1238 34.676L95.0718 34.46C94.2078 34.46 93.4878 34.496 92.9118 34.568C92.3358 34.616 91.9998 34.64 91.9038 34.64C91.8318 34.64 91.6398 34.568 91.3278 34.424C91.0398 34.28 90.8238 34.208 90.6798 34.208C90.5598 34.208 90.4518 34.244 90.3558 34.316C90.2838 34.388 90.2118 34.484 90.1398 34.604C89.9718 34.892 89.7558 35.036 89.4918 35.036L87.9798 34.856C87.2838 34.856 86.5278 34.94 85.7118 35.108C84.9198 35.276 84.3438 35.36 83.9838 35.36C83.6238 35.36 83.1798 35.288 82.6518 35.144C82.1478 35.024 81.8958 34.88 81.8958 34.712C81.8958 34.664 81.9558 34.424 82.0758 33.992C82.4598 32.648 82.6518 31.712 82.6518 31.184C82.6518 30.632 82.6278 30.272 82.5798 30.104C82.5798 30.08 82.7238 29.972 83.0118 29.78C83.3238 29.564 83.4798 29.288 83.4798 28.952C83.4798 28.616 83.2638 28.316 82.8318 28.052C82.3998 27.764 82.1838 27.608 82.1838 27.584L82.5078 26.072C82.7238 25.064 82.8318 24.38 82.8318 24.02C82.8318 23.66 82.7958 23.384 82.7238 23.192C82.6758 23 82.6518 22.892 82.6518 22.868V22.796C82.8438 21.884 82.9398 20.876 82.9398 19.772C82.9398 18.644 82.8918 17.6 82.7958 16.64C82.7238 15.656 82.6878 15.152 82.6878 15.128C82.6878 15.104 82.8078 14.996 83.0478 14.804C83.2878 14.612 83.4078 14.396 83.4078 14.156C83.4078 13.892 83.2878 13.532 83.0478 13.076C82.3758 11.708 82.0398 10.124 82.0398 8.324C82.0398 8.06 82.8678 7.832 84.5238 7.64C86.1798 7.424 87.7638 7.316 89.2758 7.316C89.5878 7.316 89.8518 7.448 90.0678 7.712C90.2838 7.976 90.4638 8.108 90.6078 8.108C90.7758 8.108 91.4838 7.988 92.7318 7.748C94.0038 7.508 94.9998 7.388 95.7198 7.388C97.4718 7.388 98.3478 7.592 98.3478 8C98.3478 8.696 98.2038 9.632 97.9158 10.808C97.6278 11.96 97.4118 12.608 97.2678 12.752C97.0278 13.04 96.4278 13.184 95.4678 13.184C95.3718 13.184 95.2398 13.016 95.0718 12.68C94.9278 12.32 94.6398 11.972 94.2078 11.636C93.7998 11.276 93.3438 11.096 92.8398 11.096C92.3358 11.096 91.7958 11.204 91.2198 11.42C90.6438 11.612 90.2838 11.78 90.1398 11.924C89.9958 12.068 89.9238 12.68 89.9238 13.76C89.9238 14.816 89.9838 15.608 90.1038 16.136V16.244C90.1038 16.412 89.8638 16.568 89.3838 16.712C88.9038 16.856 88.6638 17.324 88.6638 18.116C88.6638 18.236 89.0238 18.296 89.7438 18.296ZM108.745 20.348C108.721 21.14 108.601 21.788 108.385 22.292C108.193 22.796 108.097 23.72 108.097 25.064C108.097 26.408 108.193 27.656 108.385 28.808C108.385 29.264 108.121 29.72 107.593 30.176C107.425 30.32 107.341 30.44 107.341 30.536C107.341 30.608 107.425 30.74 107.593 30.932C107.761 31.1 108.001 31.184 108.313 31.184C108.625 31.184 109.021 31.064 109.501 30.824C110.005 30.56 110.389 30.308 110.653 30.068L111.049 29.708C111.529 29.228 111.769 28.424 111.769 27.296L111.625 25.748C111.625 25.676 111.793 25.544 112.129 25.352C112.489 25.16 112.669 24.956 112.669 24.74C112.669 24.356 112.417 23.984 111.913 23.624C111.625 23.528 111.409 23.276 111.265 22.868C111.265 22.82 111.349 22.568 111.517 22.112C112.021 20.744 112.273 19.88 112.273 19.52C112.273 19.136 112.249 18.872 112.201 18.728C111.937 18.272 111.757 17.276 111.661 15.74C111.565 14.204 111.409 13.244 111.193 12.86C110.977 12.452 110.677 12.104 110.293 11.816C109.933 11.528 109.621 11.336 109.357 11.24L108.961 11.096C108.793 11.096 108.613 11.156 108.421 11.276C108.229 11.396 108.145 11.528 108.169 11.672C108.193 11.816 108.205 12.356 108.205 13.292C108.205 14.228 108.145 15.152 108.025 16.064V16.1C108.025 16.22 108.157 16.436 108.421 16.748C108.709 17.036 108.853 17.276 108.853 17.468C108.853 17.66 108.673 17.96 108.313 18.368C107.977 18.752 107.809 19.028 107.809 19.196C107.809 19.364 107.965 19.58 108.277 19.844C108.589 20.084 108.745 20.252 108.745 20.348ZM119.149 22.04L119.257 23.624C119.257 23.816 119.221 23.924 119.149 23.948C118.789 24.26 118.609 24.884 118.609 25.82C118.393 27.356 118.189 28.172 117.997 28.268C117.013 28.436 116.521 28.808 116.521 29.384C116.521 29.624 116.629 29.852 116.845 30.068C117.085 30.26 117.205 30.404 117.205 30.5C117.205 30.596 116.881 31.016 116.233 31.76C115.609 32.48 114.961 33.068 114.289 33.524C113.617 33.98 112.789 34.46 111.805 34.964C110.821 35.444 110.089 35.684 109.609 35.684C109.561 35.684 109.477 35.612 109.357 35.468C109.261 35.324 109.141 35.252 108.997 35.252C108.997 35.252 107.845 35.348 105.541 35.54C104.293 35.54 102.997 35.372 101.653 35.036L100.933 34.856C100.813 34.808 100.693 34.688 100.573 34.496C100.453 34.304 100.393 34.16 100.393 34.064L100.429 33.992C100.837 33.368 101.041 32.096 101.041 30.176V30.104C101.041 30.056 101.221 29.936 101.581 29.744C101.965 29.528 102.157 29.252 102.157 28.916C102.157 28.58 101.941 28.244 101.509 27.908C101.077 27.572 100.861 27.368 100.861 27.296V27.26C101.101 26.252 101.221 23.876 101.221 20.132V19.124C101.221 18.476 101.101 17.888 100.861 17.36V17.288L101.221 16.352C101.269 16.208 101.293 15.932 101.293 15.524L101.149 12.464C101.029 11.72 100.777 11.06 100.393 10.484C100.009 9.884 99.817 9.572 99.817 9.548C99.817 9.5 99.841 9.416 99.889 9.296C100.057 8.888 100.273 8.612 100.537 8.468C100.801 8.3 101.809 8.012 103.561 7.604C105.337 7.196 106.525 6.992 107.125 6.992C107.749 6.992 108.865 7.136 110.473 7.424C112.105 7.712 113.209 8 113.785 8.288C114.361 8.576 115.201 9.26 116.305 10.34C117.409 11.396 117.961 12.056 117.961 12.32C117.961 12.392 117.853 12.62 117.637 13.004C117.421 13.364 117.313 13.628 117.313 13.796C117.313 13.964 117.541 14.192 117.997 14.48C118.453 14.744 118.705 14.996 118.753 15.236C118.993 16.556 119.137 17.552 119.185 18.224L119.221 19.088C119.221 19.52 119.209 20.12 119.185 20.888L119.149 22.04ZM137.037 13.94L137.613 15.596C137.613 15.644 137.433 15.884 137.073 16.316C136.713 16.748 136.533 17.072 136.533 17.288C136.533 17.48 136.689 17.708 137.001 17.972C137.337 18.236 137.505 18.44 137.505 18.584C136.953 21.272 136.677 23.216 136.677 24.416C136.677 24.68 136.965 25.1 137.541 25.676C137.589 25.724 137.613 25.82 137.613 25.964C137.613 26.084 137.493 26.408 137.253 26.936C137.037 27.44 136.929 27.74 136.929 27.836C136.929 28.484 137.217 29.144 137.793 29.816C138.369 30.488 138.909 30.824 139.413 30.824C139.725 30.824 139.989 30.704 140.205 30.464C140.445 30.2 140.661 29.948 140.853 29.708L141.177 29.348C141.201 29.324 141.213 29.288 141.213 29.24C141.213 29.192 141.069 28.952 140.781 28.52C140.517 28.064 140.385 27.752 140.385 27.584C140.385 27.416 140.505 26.96 140.745 26.216C141.009 25.448 141.141 24.896 141.141 24.56L140.565 23.984C140.541 23.96 140.529 23.888 140.529 23.768V23.696C140.529 23.288 140.445 23 140.277 22.832L140.241 22.724C140.289 22.484 140.577 22.052 141.105 21.428C141.225 21.308 141.285 20.816 141.285 19.952L141.105 16.46C141.105 16.244 140.913 15.992 140.529 15.704C140.169 15.416 139.989 15.236 139.989 15.164C139.989 14.54 140.157 13.832 140.493 13.04L140.673 12.644C140.673 12.356 140.349 12.032 139.701 11.672L139.377 11.492C138.969 11.492 138.477 11.792 137.901 12.392C137.325 12.968 137.037 13.484 137.037 13.94ZM147.261 26.828C147.261 27.308 147.501 27.764 147.981 28.196C147.981 28.724 147.801 29.396 147.441 30.212C147.081 31.004 146.697 31.676 146.289 32.228C145.905 32.78 145.653 33.056 145.533 33.056C144.981 33.056 144.333 33.212 143.589 33.524C142.869 33.836 142.281 34.148 141.825 34.46L141.141 34.928C140.901 35.144 139.797 35.36 137.829 35.576L136.857 35.684C135.849 35.684 134.805 35.264 133.725 34.424C132.645 33.56 131.817 32.732 131.241 31.94C130.689 31.148 130.413 30.704 130.413 30.608C130.413 30.512 130.461 30.308 130.557 29.996C130.677 29.684 130.737 29.384 130.737 29.096C130.737 28.52 130.365 28.232 129.621 28.232L129.333 28.268C129.141 28.268 128.901 26.984 128.613 24.416L128.469 23.156L128.901 18.26C128.901 18.188 129.045 17.948 129.333 17.54C129.621 17.132 129.765 16.88 129.765 16.784L129.693 13.688C129.693 12.752 129.729 12.236 129.801 12.14C130.113 11.708 131.109 10.868 132.789 9.62C134.469 8.372 135.729 7.748 136.569 7.748C136.737 7.34 136.917 7.136 137.109 7.136C138.309 7.064 139.701 7.028 141.285 7.028C142.893 7.028 143.829 7.16 144.093 7.424C144.117 7.448 144.393 7.7 144.921 8.18C145.449 8.66 145.893 9.08 146.253 9.44C146.613 9.8 146.961 10.244 147.297 10.772C147.657 11.3 147.837 11.744 147.837 12.104L147.117 13.004C147.381 13.556 147.753 14.72 148.233 16.496C148.737 18.248 148.989 19.508 148.989 20.276C148.893 24.02 148.713 25.892 148.449 25.892C147.657 26.204 147.261 26.516 147.261 26.828ZM163.744 23.084C163.696 23.06 163.66 23.048 163.636 23.048C162.82 22.712 161.812 22.544 160.612 22.544C159.436 22.544 158.5 22.664 157.804 22.904C156.7 23.288 156.148 23.792 156.148 24.416C156.148 24.728 156.448 24.884 157.048 24.884C157.144 24.884 157.36 24.86 157.696 24.812H157.732C157.828 24.812 157.876 25.064 157.876 25.568L157.84 26.396C157.72 28.052 157.66 29.252 157.66 29.996C157.66 30.716 157.768 31.436 157.984 32.156L158.308 33.236C158.308 33.308 158.272 33.368 158.2 33.416C158.008 33.488 157.612 33.716 157.012 34.1C155.548 35.036 154.492 35.504 153.844 35.504C153.22 35.504 152.632 35.42 152.08 35.252C151.552 35.108 151.132 34.952 150.82 34.784C150.508 34.616 150.352 34.496 150.352 34.424C150.352 34.304 150.472 33.908 150.712 33.236C150.976 32.54 151.108 31.904 151.108 31.328C151.108 31.208 150.988 31.076 150.748 30.932C150.508 30.764 150.388 30.572 150.388 30.356C150.388 30.14 150.46 29.84 150.604 29.456C150.772 29.072 150.856 28.868 150.856 28.844V28.7L150.82 26.9C150.82 26.588 150.844 25.952 150.892 24.992V24.848L150.928 24.2C150.928 23.696 150.88 23.192 150.784 22.688C150.712 22.184 150.676 21.92 150.676 21.896C150.676 21.872 150.868 21.692 151.252 21.356C151.636 21.02 151.828 20.756 151.828 20.564C151.828 20.372 151.792 20.228 151.72 20.132C151.648 20.012 151.552 19.928 151.432 19.88C151.336 19.808 151.24 19.748 151.144 19.7C150.88 19.58 150.748 19.508 150.748 19.484C150.868 18.284 150.928 17.456 150.928 17L150.82 13.04C151.108 12.656 151.252 12.416 151.252 12.32C151.252 12.224 151.144 12.068 150.928 11.852C150.712 11.732 150.508 11.252 150.316 10.412C150.148 9.572 150.064 8.948 150.064 8.54C150.064 8.372 150.796 8.204 152.26 8.036C153.724 7.844 154.456 7.676 154.456 7.532C154.576 7.46 154.732 7.424 154.924 7.424C155.116 7.424 155.656 7.472 156.544 7.568C157.432 7.664 157.924 7.76 158.02 7.856L158.164 8.216C158.26 8.432 158.428 8.54 158.668 8.54C158.908 8.54 159.568 8.396 160.648 8.108C161.728 7.82 162.688 7.676 163.528 7.676L164.932 7.388C166.156 7.628 166.804 7.772 166.876 7.82C166.924 7.916 166.948 8.156 166.948 8.54C166.948 8.9 166.9 9.344 166.804 9.872V9.944C166.252 12.152 165.844 13.388 165.58 13.652C165.316 13.916 164.788 14.048 163.996 14.048C163.228 14.024 162.844 13.88 162.844 13.616V13.508C162.844 12.908 162.664 12.44 162.304 12.104C161.944 11.744 161.452 11.564 160.828 11.564C160.228 11.564 159.496 11.756 158.632 12.14C157.768 12.524 157.336 12.824 157.336 13.04C157.336 13.088 157.456 13.22 157.696 13.436C157.96 13.628 158.092 13.808 158.092 13.976C158.092 14.144 158.044 14.288 157.948 14.408C157.804 14.624 157.732 15.212 157.732 16.172C157.732 17.132 157.792 17.672 157.912 17.792C158.032 17.912 158.464 17.972 159.208 17.972L164.536 17.828C164.992 17.828 165.244 17.864 165.292 17.936C165.364 17.984 165.4 18.332 165.4 18.98C165.4 19.628 165.196 20.48 164.788 21.536C164.38 22.568 164.044 23.084 163.78 23.084H163.744ZM181.533 23.084C181.485 23.06 181.449 23.048 181.425 23.048C180.609 22.712 179.601 22.544 178.401 22.544C177.225 22.544 176.289 22.664 175.593 22.904C174.489 23.288 173.937 23.792 173.937 24.416C173.937 24.728 174.237 24.884 174.837 24.884C174.933 24.884 175.149 24.86 175.485 24.812H175.521C175.617 24.812 175.665 25.064 175.665 25.568L175.629 26.396C175.509 28.052 175.449 29.252 175.449 29.996C175.449 30.716 175.557 31.436 175.773 32.156L176.097 33.236C176.097 33.308 176.061 33.368 175.989 33.416C175.797 33.488 175.401 33.716 174.801 34.1C173.337 35.036 172.281 35.504 171.633 35.504C171.009 35.504 170.421 35.42 169.869 35.252C169.341 35.108 168.921 34.952 168.609 34.784C168.297 34.616 168.141 34.496 168.141 34.424C168.141 34.304 168.261 33.908 168.501 33.236C168.765 32.54 168.897 31.904 168.897 31.328C168.897 31.208 168.777 31.076 168.537 30.932C168.297 30.764 168.177 30.572 168.177 30.356C168.177 30.14 168.249 29.84 168.393 29.456C168.561 29.072 168.645 28.868 168.645 28.844V28.7L168.609 26.9C168.609 26.588 168.633 25.952 168.681 24.992V24.848L168.717 24.2C168.717 23.696 168.669 23.192 168.573 22.688C168.501 22.184 168.465 21.92 168.465 21.896C168.465 21.872 168.657 21.692 169.041 21.356C169.425 21.02 169.617 20.756 169.617 20.564C169.617 20.372 169.581 20.228 169.509 20.132C169.437 20.012 169.341 19.928 169.221 19.88C169.125 19.808 169.029 19.748 168.933 19.7C168.669 19.58 168.537 19.508 168.537 19.484C168.657 18.284 168.717 17.456 168.717 17L168.609 13.04C168.897 12.656 169.041 12.416 169.041 12.32C169.041 12.224 168.933 12.068 168.717 11.852C168.501 11.732 168.297 11.252 168.105 10.412C167.937 9.572 167.853 8.948 167.853 8.54C167.853 8.372 168.585 8.204 170.049 8.036C171.513 7.844 172.245 7.676 172.245 7.532C172.365 7.46 172.521 7.424 172.713 7.424C172.905 7.424 173.445 7.472 174.333 7.568C175.221 7.664 175.713 7.76 175.809 7.856L175.953 8.216C176.049 8.432 176.217 8.54 176.457 8.54C176.697 8.54 177.357 8.396 178.437 8.108C179.517 7.82 180.477 7.676 181.317 7.676L182.721 7.388C183.945 7.628 184.593 7.772 184.665 7.82C184.713 7.916 184.737 8.156 184.737 8.54C184.737 8.9 184.689 9.344 184.593 9.872V9.944C184.041 12.152 183.633 13.388 183.369 13.652C183.105 13.916 182.577 14.048 181.785 14.048C181.017 14.024 180.633 13.88 180.633 13.616V13.508C180.633 12.908 180.453 12.44 180.093 12.104C179.733 11.744 179.241 11.564 178.617 11.564C178.017 11.564 177.285 11.756 176.421 12.14C175.557 12.524 175.125 12.824 175.125 13.04C175.125 13.088 175.245 13.22 175.485 13.436C175.749 13.628 175.881 13.808 175.881 13.976C175.881 14.144 175.833 14.288 175.737 14.408C175.593 14.624 175.521 15.212 175.521 16.172C175.521 17.132 175.581 17.672 175.701 17.792C175.821 17.912 176.253 17.972 176.997 17.972L182.325 17.828C182.781 17.828 183.033 17.864 183.081 17.936C183.153 17.984 183.189 18.332 183.189 18.98C183.189 19.628 182.985 20.48 182.577 21.536C182.169 22.568 181.833 23.084 181.569 23.084H181.533ZM193.31 27.692C193.262 28.148 193.238 28.94 193.238 30.068C193.238 31.196 193.562 32.408 194.21 33.704C194.21 33.824 194.066 33.98 193.778 34.172C193.514 34.364 193.322 34.508 193.202 34.604C193.082 34.676 192.914 34.796 192.698 34.964C192.506 35.132 192.35 35.264 192.23 35.36C191.894 35.624 191.654 35.756 191.51 35.756C190.814 35.756 189.662 35.624 188.054 35.36C186.47 35.096 185.678 34.832 185.678 34.568C185.678 34.424 185.738 33.824 185.858 32.768C185.978 31.712 186.05 31.124 186.074 31.004L186.326 30.5C186.542 28.124 186.65 26.564 186.65 25.82C186.65 25.076 186.614 24.152 186.542 23.048C186.494 21.944 186.434 21.08 186.362 20.456C186.314 19.808 186.29 19.472 186.29 19.448C186.29 19.4 186.386 19.316 186.578 19.196C187.106 18.836 187.37 18.452 187.37 18.044C187.37 17.636 187.166 17.336 186.758 17.144C186.374 16.928 186.182 16.784 186.182 16.712C186.182 16.472 186.242 15.92 186.362 15.056C186.482 14.168 186.542 13.484 186.542 13.004C186.542 12.524 186.386 11.852 186.074 10.988C185.786 10.124 185.642 9.632 185.642 9.512C185.642 9.32 186.194 8.888 187.298 8.216C188.426 7.52 189.218 7.172 189.674 7.172C190.154 7.172 190.934 7.328 192.014 7.64C193.094 7.928 193.634 8.252 193.634 8.612C193.634 8.876 193.502 9.536 193.238 10.592C192.974 11.648 192.842 12.248 192.842 12.392C192.842 12.536 192.914 12.668 193.058 12.788C193.226 12.884 193.31 13.004 193.31 13.148C193.046 15.884 192.914 17.732 192.914 18.692C192.914 19.628 192.926 20.18 192.95 20.348C192.974 20.492 193.046 20.66 193.166 20.852C193.286 21.044 193.346 21.236 193.346 21.428C193.346 21.452 193.154 21.62 192.77 21.932C192.41 22.244 192.23 22.52 192.23 22.76C192.23 23 192.434 23.288 192.842 23.624C193.25 23.96 193.454 24.308 193.454 24.668C193.382 25.148 193.334 25.412 193.31 25.46C193.31 25.484 193.13 25.628 192.77 25.892C192.41 26.132 192.23 26.3 192.23 26.396V26.648C192.23 26.96 192.47 27.2 192.95 27.368C193.19 27.464 193.31 27.572 193.31 27.692ZM202.969 14.192L203.041 14.66C203.041 14.732 202.957 15.164 202.789 15.956C202.621 16.724 202.537 17.42 202.537 18.044C202.537 18.14 202.681 18.332 202.969 18.62C203.257 18.884 203.401 19.16 203.401 19.448C203.401 19.712 203.209 20.012 202.825 20.348C202.441 20.684 202.249 20.936 202.249 21.104C202.249 21.272 202.321 21.44 202.465 21.608C202.633 21.776 202.789 21.908 202.933 22.004C203.077 22.1 203.149 22.172 203.149 22.22C203.077 22.508 203.041 23.096 203.041 23.984V25.712C203.041 26.48 203.017 26.996 202.969 27.26V27.332C202.969 27.812 203.293 28.46 203.941 29.276C204.589 30.068 205.273 30.464 205.993 30.464C206.353 30.464 206.941 29.936 207.757 28.88C208.573 27.824 208.981 26.816 208.981 25.856C208.981 25.736 209.125 25.676 209.413 25.676H209.521C209.689 25.7 210.133 25.916 210.853 26.324C211.597 26.732 212.065 27.044 212.257 27.26C212.473 27.452 212.749 27.86 213.085 28.484C213.445 29.084 213.625 29.42 213.625 29.492C213.625 30.38 212.989 31.532 211.717 32.948C210.445 34.364 209.605 35.072 209.197 35.072C209.149 35.072 209.017 34.976 208.801 34.784C208.585 34.568 208.405 34.46 208.261 34.46C208.117 34.46 207.781 34.568 207.253 34.784C205.717 35.48 204.277 35.828 202.933 35.828C202.429 35.828 201.517 35.432 200.197 34.64C198.901 33.848 198.073 33.164 197.713 32.588C197.065 31.556 196.537 30.476 196.129 29.348C195.721 28.196 195.517 27.464 195.517 27.152L196.057 26.648C196.417 26.312 196.597 25.988 196.597 25.676C196.597 25.364 196.429 25.064 196.093 24.776C195.781 24.464 195.625 24.272 195.625 24.2C195.649 24.128 195.661 23.924 195.661 23.588L195.481 20.132C195.481 19.532 195.613 18.704 195.877 17.648C196.141 16.568 196.273 15.896 196.273 15.632C196.273 15.368 196.201 15.056 196.057 14.696C195.937 14.336 195.877 14.144 195.877 14.12C195.877 13.52 196.753 12.44 198.505 10.88C200.257 9.32 201.637 8.36 202.645 8C204.469 7.472 206.785 7.208 209.593 7.208C210.241 7.208 210.937 7.64 211.681 8.504C212.449 9.344 212.833 9.884 212.833 10.124C212.833 10.148 212.713 10.328 212.473 10.664C212.233 11 212.113 11.3 212.113 11.564C212.113 11.804 212.305 12.068 212.689 12.356C213.097 12.644 213.301 12.848 213.301 12.968C213.325 13.088 213.337 13.268 213.337 13.508C213.337 14.444 213.217 15.104 212.977 15.488C212.737 15.848 212.329 16.328 211.753 16.928C211.177 17.504 210.781 17.828 210.565 17.9C209.557 18.236 208.393 18.404 207.073 18.404C206.977 18.404 206.857 18.32 206.713 18.152C206.569 17.984 206.497 17.864 206.497 17.792C206.497 17.72 206.509 17.684 206.533 17.684C206.917 17.276 207.109 16.256 207.109 14.624C207.109 14.36 207.001 14.12 206.785 13.904C206.593 13.664 206.497 13.496 206.497 13.4V13.328L206.533 13.076C206.533 12.692 206.461 12.32 206.317 11.96C206.173 11.6 205.945 11.42 205.633 11.42C205.057 11.42 204.469 11.744 203.869 12.392C203.269 13.016 202.969 13.616 202.969 14.192ZM222.74 18.296L228.608 17.972C229.352 17.972 229.724 18.08 229.724 18.296C229.724 18.944 229.448 19.964 228.896 21.356C228.344 22.724 227.912 23.408 227.6 23.408L226.988 23.048C226.58 22.832 226.148 22.724 225.692 22.724C223.964 22.724 223.028 22.796 222.884 22.94C222.74 23.084 222.668 24.176 222.668 26.216C222.668 28.232 222.86 29.432 223.244 29.816C223.628 30.2 224.42 30.392 225.62 30.392C226.82 30.392 227.576 30.236 227.888 29.924C228.224 29.588 228.56 29.144 228.896 28.592C229.256 28.04 229.544 27.572 229.76 27.188C229.976 26.78 230.096 26.576 230.12 26.576C230.336 26.576 230.744 26.876 231.344 27.476C231.968 28.076 232.28 28.52 232.28 28.808C232.28 29.072 232.016 30.056 231.488 31.76C230.984 33.44 230.624 34.388 230.408 34.604C230.384 34.652 230.288 34.676 230.12 34.676L228.068 34.46C227.204 34.46 226.484 34.496 225.908 34.568C225.332 34.616 224.996 34.64 224.9 34.64C224.828 34.64 224.636 34.568 224.324 34.424C224.036 34.28 223.82 34.208 223.676 34.208C223.556 34.208 223.448 34.244 223.352 34.316C223.28 34.388 223.208 34.484 223.136 34.604C222.968 34.892 222.752 35.036 222.488 35.036L220.976 34.856C220.28 34.856 219.524 34.94 218.708 35.108C217.916 35.276 217.34 35.36 216.98 35.36C216.62 35.36 216.176 35.288 215.648 35.144C215.144 35.024 214.892 34.88 214.892 34.712C214.892 34.664 214.952 34.424 215.072 33.992C215.456 32.648 215.648 31.712 215.648 31.184C215.648 30.632 215.624 30.272 215.576 30.104C215.576 30.08 215.72 29.972 216.008 29.78C216.32 29.564 216.476 29.288 216.476 28.952C216.476 28.616 216.26 28.316 215.828 28.052C215.396 27.764 215.18 27.608 215.18 27.584L215.504 26.072C215.72 25.064 215.828 24.38 215.828 24.02C215.828 23.66 215.792 23.384 215.72 23.192C215.672 23 215.648 22.892 215.648 22.868V22.796C215.84 21.884 215.936 20.876 215.936 19.772C215.936 18.644 215.888 17.6 215.792 16.64C215.72 15.656 215.684 15.152 215.684 15.128C215.684 15.104 215.804 14.996 216.044 14.804C216.284 14.612 216.404 14.396 216.404 14.156C216.404 13.892 216.284 13.532 216.044 13.076C215.372 11.708 215.036 10.124 215.036 8.324C215.036 8.06 215.864 7.832 217.52 7.64C219.176 7.424 220.76 7.316 222.272 7.316C222.584 7.316 222.848 7.448 223.064 7.712C223.28 7.976 223.46 8.108 223.604 8.108C223.772 8.108 224.48 7.988 225.728 7.748C227 7.508 227.996 7.388 228.716 7.388C230.468 7.388 231.344 7.592 231.344 8C231.344 8.696 231.2 9.632 230.912 10.808C230.624 11.96 230.408 12.608 230.264 12.752C230.024 13.04 229.424 13.184 228.464 13.184C228.368 13.184 228.236 13.016 228.068 12.68C227.924 12.32 227.636 11.972 227.204 11.636C226.796 11.276 226.34 11.096 225.836 11.096C225.332 11.096 224.792 11.204 224.216 11.42C223.64 11.612 223.28 11.78 223.136 11.924C222.992 12.068 222.92 12.68 222.92 13.76C222.92 14.816 222.98 15.608 223.1 16.136V16.244C223.1 16.412 222.86 16.568 222.38 16.712C221.9 16.856 221.66 17.324 221.66 18.116C221.66 18.236 222.02 18.296 222.74 18.296ZM252.702 18.404L253.674 18.44C254.394 18.44 254.862 18.332 255.078 18.116C255.294 17.9 256.026 17.804 257.274 17.828C258.546 17.828 259.278 17.936 259.47 18.152C259.686 18.344 259.794 18.788 259.794 19.484C259.794 20.18 259.77 20.552 259.722 20.6C259.194 20.96 258.894 21.272 258.822 21.536C258.75 21.8 258.714 22.028 258.714 22.22C258.714 22.388 258.882 22.556 259.218 22.724C259.578 22.892 259.758 23.036 259.758 23.156C259.758 23.516 259.65 24.032 259.434 24.704C259.218 25.376 259.11 25.796 259.11 25.964C259.11 27.116 259.158 28.196 259.254 29.204C259.374 30.188 259.434 31.016 259.434 31.688C259.434 32.36 259.35 32.816 259.182 33.056C258.846 33.392 258.402 33.68 257.85 33.92C257.298 34.16 256.89 34.28 256.626 34.28C256.578 34.28 256.302 34.064 255.798 33.632C255.318 33.176 254.97 32.948 254.754 32.948C254.538 32.948 254.25 33.092 253.89 33.38C253.554 33.644 253.182 33.944 252.774 34.28C252.366 34.592 251.814 34.88 251.118 35.144C250.446 35.432 249.786 35.576 249.138 35.576C248.49 35.576 247.59 35.276 246.438 34.676C245.286 34.076 244.554 33.62 244.242 33.308C244.146 33.236 244.002 33.056 243.81 32.768C243.642 32.456 243.522 32.264 243.45 32.192C243.378 32.12 243.162 32.012 242.802 31.868C242.466 31.7 242.238 31.556 242.118 31.436C241.998 31.316 241.866 30.308 241.722 28.412C241.578 26.516 241.41 25.376 241.218 24.992V24.956C241.218 24.932 241.374 24.8 241.686 24.56C242.022 24.296 242.19 24.008 242.19 23.696C242.19 23.36 242.094 23.084 241.902 22.868C241.734 22.628 241.554 22.436 241.362 22.292C241.194 22.148 241.11 22.064 241.11 22.04C241.11 21.56 241.362 20.792 241.866 19.736C242.01 19.448 242.082 18.728 242.082 17.576L242.01 14.516C242.01 13.892 242.91 12.62 244.71 10.7C246.51 8.78 247.734 7.82 248.382 7.82L249.138 8.216C249.21 8.216 249.966 8.108 251.406 7.892C252.87 7.676 253.854 7.568 254.358 7.568C254.862 7.568 255.534 7.652 256.374 7.82C257.238 7.988 257.73 8.132 257.85 8.252C257.97 8.372 258.03 8.636 258.03 9.044C258.03 9.452 257.982 9.872 257.886 10.304C257.814 10.712 257.634 11.3 257.346 12.068C257.058 12.812 256.842 13.256 256.698 13.4C256.578 13.544 256.35 13.616 256.014 13.616C255.702 13.616 255.522 13.604 255.474 13.58C255.45 13.532 255.342 13.388 255.15 13.148C254.982 12.908 254.814 12.704 254.646 12.536C254.214 12.056 253.578 11.816 252.738 11.816C252.522 11.816 252.078 11.96 251.406 12.248C250.734 12.536 250.218 12.86 249.858 13.22C249.738 13.34 249.594 13.748 249.426 14.444C249.258 15.14 249.174 15.764 249.174 16.316C249.174 16.412 248.91 16.592 248.382 16.856C248.166 17.144 248.058 17.36 248.058 17.504C248.058 17.624 248.25 17.792 248.634 18.008C249.042 18.2 249.246 18.332 249.246 18.404C249.246 18.668 249.09 19.112 248.778 19.736C248.586 20.36 248.49 21.62 248.49 23.516C248.49 25.412 248.514 26.384 248.562 26.432C248.61 26.48 248.718 26.564 248.886 26.684C249.318 26.972 249.534 27.176 249.534 27.296C249.486 27.488 249.462 27.716 249.462 27.98C249.462 28.868 249.738 29.588 250.29 30.14C250.458 30.308 250.794 30.392 251.298 30.392C251.562 30.392 251.898 30.02 252.306 29.276C252.738 28.532 252.954 27.872 252.954 27.296C252.954 27.248 252.846 27.02 252.63 26.612C252.438 26.204 252.342 25.712 252.342 25.136L252.702 24.704C252.918 24.44 253.026 24.164 253.026 23.876C253.026 23.564 252.93 23.3 252.738 23.084C252.57 22.868 252.438 22.748 252.342 22.724C252.246 22.7 252.138 22.688 252.018 22.688L250.686 22.832C250.542 22.832 250.47 22.796 250.47 22.724C250.47 22.004 250.662 21.2 251.046 20.312C251.454 19.4 251.802 18.8 252.09 18.512C252.162 18.44 252.366 18.404 252.702 18.404ZM269.448 25.316L269.052 28.628C269.124 29.204 269.328 29.72 269.664 30.176C270.024 30.608 270.444 30.824 270.924 30.824C271.164 30.824 271.44 30.62 271.752 30.212C272.064 29.78 272.22 29.312 272.22 28.808C272.172 28.424 272.148 28.064 272.148 27.728C272.148 27.392 272.184 27.188 272.256 27.116C272.64 26.78 272.832 26.456 272.832 26.144C272.328 25.544 272.076 25.16 272.076 24.992L272.688 23.552V21.572C272.688 20.204 272.664 19.46 272.616 19.34C272.88 19.172 273.012 18.824 273.012 18.296C273.012 18.104 272.868 17.912 272.58 17.72C272.292 17.504 272.148 17.288 272.148 17.072C272.22 16.28 272.376 15.572 272.616 14.948C272.664 14.852 272.688 14.204 272.688 13.004C272.688 11.78 272.64 11.12 272.544 11.024C272.28 10.76 272.148 10.076 272.148 8.972C272.148 8.924 272.16 8.864 272.184 8.792C272.304 8.672 272.916 8.36 274.02 7.856C275.148 7.328 275.736 7.064 275.784 7.064C275.856 7.064 276.024 7.136 276.288 7.28C276.552 7.424 276.756 7.496 276.9 7.496C277.044 7.496 277.164 7.448 277.26 7.352C277.356 7.256 277.464 7.208 277.584 7.208C277.728 7.208 277.824 7.22 277.872 7.244C279.192 7.796 279.852 8.168 279.852 8.36C279.852 8.48 279.72 9.092 279.456 10.196C279.216 11.3 279.096 12.248 279.096 13.04C279.096 13.16 279.216 13.328 279.456 13.544C279.696 13.76 279.816 13.94 279.816 14.084C279.816 14.204 279.72 14.432 279.528 14.768C279.336 15.104 279.24 15.284 279.24 15.308C279.192 16.724 279.168 18.224 279.168 19.808C279.168 21.392 279.228 22.34 279.348 22.652V22.688C279.348 22.784 279.18 23 278.844 23.336C278.532 23.672 278.376 23.912 278.376 24.056C278.376 24.2 278.424 24.344 278.52 24.488C278.64 24.608 278.76 24.68 278.88 24.704C279.192 24.8 279.348 24.884 279.348 24.956C279.276 25.244 279.24 25.76 279.24 26.504C279.24 27.56 279.252 28.568 279.276 29.528L279.312 30.032C279.312 30.416 278.856 31.232 277.944 32.48L277.476 33.092C275.988 33.428 275.076 33.68 274.74 33.848C274.212 34.064 273.528 34.628 272.688 35.54L272.292 35.972C270.276 35.972 268.584 35.852 267.216 35.612C265.848 35.396 264.984 35.18 264.624 34.964L264.084 34.64L262.14 32.264L261.564 32.084C261.468 32.06 261.3 31.868 261.06 31.508C260.844 31.148 260.736 30.932 260.736 30.86C260.736 30.764 260.772 30.68 260.844 30.608C261.084 30.368 261.288 29.756 261.456 28.772C261.624 27.788 261.708 27.056 261.708 26.576C261.708 26.072 261.66 25.772 261.564 25.676C261.468 25.58 261.42 25.016 261.42 23.984L261.492 21.968C261.492 21.32 261.324 20.828 260.988 20.492C260.988 20.084 261.048 19.796 261.168 19.628C261.312 19.46 261.444 19.292 261.564 19.124C261.708 18.932 261.816 18.8 261.888 18.728L262.068 17.864C262.068 17.84 261.888 17.648 261.528 17.288C261.168 16.904 260.988 16.676 260.988 16.604C260.988 16.532 261.036 16.364 261.132 16.1C261.468 15.308 261.636 14.708 261.636 14.3C261.636 13.892 261.444 12.884 261.06 11.276C260.7 9.644 260.52 8.816 260.52 8.792C260.52 8.672 261.216 8.276 262.608 7.604C264.024 6.932 264.888 6.596 265.2 6.596C265.728 6.836 266.16 6.956 266.496 6.956L267.288 6.812C267.672 6.812 268.104 6.92 268.584 7.136C269.064 7.328 269.424 7.544 269.664 7.784C269.088 11.816 268.8 14.096 268.8 14.624C269.088 14.84 269.232 15.008 269.232 15.128L269.196 15.92C269.076 17.504 269.016 18.716 269.016 19.556C269.016 20.396 269.064 21.032 269.16 21.464C269.256 21.872 269.304 22.292 269.304 22.724C268.704 23.396 268.404 23.852 268.404 24.092C268.404 24.332 268.452 24.524 268.548 24.668C268.644 24.812 268.752 24.908 268.872 24.956C269.04 25.028 269.22 25.1 269.412 25.172C269.436 25.22 269.448 25.268 269.448 25.316ZM282.922 8.54L283.354 8.612C283.81 8.612 284.398 8.444 285.118 8.108C287.878 8.348 289.27 8.54 289.294 8.684C289.606 10.844 289.762 12.116 289.762 12.5C289.762 12.884 289.75 13.088 289.726 13.112C289.27 13.52 289.018 13.784 288.97 13.904V13.976C288.97 14.384 289.138 14.6 289.474 14.624C289.786 14.672 289.942 14.708 289.942 14.732C290.254 17.012 290.578 18.152 290.914 18.152C291.37 18.056 291.622 17.924 291.67 17.756C292.486 15.572 292.93 14.168 293.002 13.544C293.29 13.424 293.47 13.304 293.542 13.184C293.638 13.04 293.806 12.632 294.046 11.96C294.31 11.264 294.442 10.76 294.442 10.448V10.124C294.442 9.284 294.49 8.84 294.586 8.792C296.602 8.168 297.898 7.856 298.474 7.856C300.538 8.36 301.57 8.78 301.57 9.116C300.082 11.228 299.206 12.596 298.942 13.22V13.328C298.942 14.144 298.762 14.732 298.402 15.092C297.514 15.236 297.07 15.56 297.07 16.064C297.286 16.352 297.394 16.568 297.394 16.712C295.69 20.12 294.61 22.796 294.154 24.74C293.386 24.932 292.918 25.304 292.75 25.856C292.918 26.36 293.218 26.612 293.65 26.612H293.722C293.53 29.612 293.434 31.424 293.434 32.048L293.866 34.64V34.712C293.866 34.808 293.662 34.904 293.254 35C292.678 35 292.054 35.18 291.382 35.54C291.094 35.876 290.602 36.14 289.906 36.332C289.042 36.332 288.238 36.212 287.494 35.972C286.75 35.732 286.21 35.48 285.874 35.216C285.562 34.976 285.406 34.784 285.406 34.64V34.604C285.91 33.884 286.162 32.156 286.162 29.42V28.484C286.162 28.316 286.018 28.076 285.73 27.764C285.442 27.452 285.298 27.272 285.298 27.224C285.298 26.984 285.526 26.636 285.982 26.18C285.982 25.172 285.67 23.888 285.046 22.328L284.758 21.572L284.722 21.464L284.83 20.78C284.83 20.66 284.818 20.564 284.794 20.492L282.526 14.948V14.876C282.526 14.78 282.658 14.552 282.922 14.192C283.21 13.832 283.354 13.58 283.354 13.436C283.354 13.196 282.934 13.004 282.094 12.86C281.926 12.86 281.782 12.476 281.662 11.708L281.626 11.312C281.602 11.24 281.434 10.976 281.122 10.52C280.81 10.04 280.654 9.728 280.654 9.584C280.654 9.536 280.798 9.428 281.086 9.26C281.854 8.78 282.466 8.54 282.922 8.54Z" fill="url(#paint0_linear_103_2)"/>
<defs>
<linearGradient id="paint0_linear_103_2" x1="151" y1="13.0556" x2="151" y2="34.8148" gradientUnits="userSpaceOnUse">
<stop stop-color="#F7B581"/>
<stop offset="0.98" stop-color="#864D07"/>
</linearGradient>
</defs>
</svg>
