<svg width="176" height="27" viewBox="0 0 176 27" fill="none" xmlns="http://www.w3.org/2000/svg">
<path d="M15.532 13.04C16.996 13.352 18.172 14.084 19.06 15.236C19.948 16.364 20.392 17.66 20.392 19.124C20.392 21.236 19.648 22.916 18.16 24.164C16.696 25.388 14.644 26 12.004 26H0.232V0.727999H11.608C14.176 0.727999 16.18 1.316 17.62 2.492C19.084 3.668 19.816 5.264 19.816 7.28C19.816 8.768 19.42 10.004 18.628 10.988C17.86 11.972 16.828 12.656 15.532 13.04ZM6.388 10.952H10.42C11.428 10.952 12.196 10.736 12.724 10.304C13.276 9.848 13.552 9.188 13.552 8.324C13.552 7.46 13.276 6.8 12.724 6.344C12.196 5.888 11.428 5.66 10.42 5.66H6.388V10.952ZM10.924 21.032C11.956 21.032 12.748 20.804 13.3 20.348C13.876 19.868 14.164 19.184 14.164 18.296C14.164 17.408 13.864 16.712 13.264 16.208C12.688 15.704 11.884 15.452 10.852 15.452H6.388V21.032H10.924ZM35.9145 26.252C33.5385 26.252 31.3545 25.7 29.3625 24.596C27.3945 23.492 25.8225 21.956 24.6465 19.988C23.4945 17.996 22.9185 15.764 22.9185 13.292C22.9185 10.82 23.4945 8.6 24.6465 6.632C25.8225 4.664 27.3945 3.128 29.3625 2.024C31.3545 0.92 33.5385 0.368 35.9145 0.368C38.2905 0.368 40.4625 0.92 42.4305 2.024C44.4225 3.128 45.9825 4.664 47.1105 6.632C48.2625 8.6 48.8385 10.82 48.8385 13.292C48.8385 15.764 48.2625 17.996 47.1105 19.988C45.9585 21.956 44.3985 23.492 42.4305 24.596C40.4625 25.7 38.2905 26.252 35.9145 26.252ZM35.9145 20.636C37.9305 20.636 39.5385 19.964 40.7385 18.62C41.9625 17.276 42.5745 15.5 42.5745 13.292C42.5745 11.06 41.9625 9.284 40.7385 7.964C39.5385 6.62 37.9305 5.948 35.9145 5.948C33.8745 5.948 32.2425 6.608 31.0185 7.928C29.8185 9.248 29.2185 11.036 29.2185 13.292C29.2185 15.524 29.8185 17.312 31.0185 18.656C32.2425 19.976 33.8745 20.636 35.9145 20.636ZM65.1513 26L59.8953 16.46H58.4193V26H52.2633V0.727999H62.5953C64.5873 0.727999 66.2793 1.076 67.6713 1.772C69.0873 2.468 70.1433 3.428 70.8393 4.652C71.5353 5.852 71.8833 7.196 71.8833 8.684C71.8833 10.364 71.4033 11.864 70.4433 13.184C69.5073 14.504 68.1153 15.44 66.2673 15.992L72.0993 26H65.1513ZM58.4193 12.104H62.2353C63.3633 12.104 64.2033 11.828 64.7553 11.276C65.3313 10.724 65.6193 9.944 65.6193 8.936C65.6193 7.976 65.3313 7.22 64.7553 6.668C64.2033 6.116 63.3633 5.84 62.2353 5.84H58.4193V12.104ZM81.9036 5.66V10.772H90.1476V15.524H81.9036V21.068H91.2276V26H75.7476V0.727999H91.2276V5.66H81.9036ZM104.692 0.727999C107.356 0.727999 109.684 1.256 111.676 2.312C113.668 3.368 115.204 4.856 116.284 6.776C117.388 8.672 117.94 10.868 117.94 13.364C117.94 15.836 117.388 18.032 116.284 19.952C115.204 21.872 113.656 23.36 111.64 24.416C109.648 25.472 107.332 26 104.692 26H95.2242V0.727999H104.692ZM104.296 20.672C106.624 20.672 108.436 20.036 109.732 18.764C111.028 17.492 111.676 15.692 111.676 13.364C111.676 11.036 111.028 9.224 109.732 7.928C108.436 6.632 106.624 5.984 104.296 5.984H101.38V20.672H104.296ZM168.672 8.72C168.216 7.88 167.556 7.244 166.692 6.812C165.852 6.356 164.856 6.128 163.704 6.128C161.712 6.128 160.116 6.788 158.916 8.108C157.716 9.404 157.116 11.144 157.116 13.328C157.116 15.656 157.74 17.48 158.988 18.8C160.26 20.096 162 20.744 164.208 20.744C165.72 20.744 166.992 20.36 168.024 19.592C169.08 18.824 169.848 17.72 170.328 16.28H162.516V11.744H175.908V17.468C175.452 19.004 174.672 20.432 173.568 21.752C172.488 23.072 171.108 24.14 169.428 24.956C167.748 25.772 165.852 26.18 163.74 26.18C161.244 26.18 159.012 25.64 157.044 24.56C155.1 23.456 153.576 21.932 152.472 19.988C151.392 18.044 150.852 15.824 150.852 13.328C150.852 10.832 151.392 8.612 152.472 6.668C153.576 4.7 155.1 3.176 157.044 2.096C158.988 0.991999 161.208 0.439999 163.704 0.439999C166.728 0.439999 169.272 1.172 171.336 2.636C173.424 4.1 174.804 6.128 175.476 8.72H168.672Z" fill="url(#paint0_linear_86_11)"/>
<defs>
<linearGradient id="paint0_linear_86_11" x1="88" y1="1" x2="88" y2="26" gradientUnits="userSpaceOnUse">
<stop stop-color="#F7B581"/>
<stop offset="0.98" stop-color="#864D07"/>
</linearGradient>
</defs>
</svg>
